<svg id="图层_1" data-name="图层 1" xmlns="http://www.w3.org/2000/svg" xmlns:xlink="http://www.w3.org/1999/xlink" viewBox="0 0 95 76"><defs><style>.cls-1{fill:#22ad91;}.cls-2{fill:#1f9b7d;}.cls-3{fill:#49d9be;}.cls-4{fill:url(#未命名的渐变_6);}.cls-5,.cls-6{fill:#fff;}.cls-6{font-size:10.44px;font-family:FZCQJW--GB1-0, FZCuQian-M17S;}</style><linearGradient id="未命名的渐变_6" x1="52" y1="74.71" x2="52" y2="19.17" gradientUnits="userSpaceOnUse"><stop offset="0" stop-color="#27cbad"/><stop offset="1" stop-color="#66e6cf"/></linearGradient></defs><title>地产</title><rect class="cls-1" y="-0.12" width="86" height="58.12" rx="2.71" ry="2.71"/><rect class="cls-2" y="37.24" width="86" height="11.27"/><circle class="cls-3" cx="10.08" cy="12.92" r="4.74"/><circle class="cls-2" cx="16.01" cy="12.92" r="4.74"/><path class="cls-3" d="M5.62,28.15V27.09c0-.73.35-1.12,1.18-1.18v0c-.83-.08-1.22-.49-1.18-1.22V24q-.06-1.3,1-1.23H9.5c.73,0,1.08.38,1.06,1.23v.61c0,.73-.35,1.14-1.18,1.22v0c.83.06,1.22.45,1.18,1.18v1.06c0,.93-.36,1.39-1.15,1.39H6.74C6,29.54,5.6,29.08,5.62,28.15ZM9.35,25.3V23.55c0-.22-.06-.33-.25-.33h-2c-.19,0-.28.11-.28.33V25.3a.24.24,0,0,0,.28.28h2C9.29,25.58,9.37,25.49,9.35,25.3Zm0,3.51V26.52c0-.24-.09-.35-.28-.32h-2c-.19,0-.28.08-.28.32v2.29a.24.24,0,0,0,.28.28h2A.24.24,0,0,0,9.35,28.81Z"/><path class="cls-3" d="M11.09,28.15V27.09c0-.73.35-1.12,1.18-1.18v0c-.83-.08-1.22-.49-1.18-1.22V24c0-.87.31-1.28,1.06-1.23H15c.72,0,1.08.38,1.06,1.23v.61c0,.73-.36,1.14-1.19,1.22v0c.83.06,1.23.45,1.19,1.18v1.06c0,.93-.37,1.39-1.16,1.39H12.21C11.44,29.54,11.07,29.08,11.09,28.15Zm3.73-2.85V23.55c0-.22-.06-.33-.25-.33h-2c-.18,0-.28.11-.28.33V25.3a.25.25,0,0,0,.28.28h2C14.76,25.58,14.84,25.49,14.82,25.3Zm0,3.51V26.52c0-.24-.09-.35-.28-.32h-2c-.18,0-.28.08-.28.32v2.29a.25.25,0,0,0,.28.28h2A.24.24,0,0,0,14.82,28.81Z"/><path class="cls-3" d="M16.56,28.15V27.09c0-.73.36-1.12,1.19-1.18v0c-.83-.08-1.23-.49-1.19-1.22V24c0-.87.31-1.28,1.06-1.23h2.83c.73,0,1.08.38,1.06,1.23v.61c0,.73-.35,1.14-1.18,1.22v0c.83.06,1.22.45,1.18,1.18v1.06c0,.93-.36,1.39-1.15,1.39H17.68C16.92,29.54,16.54,29.08,16.56,28.15Zm3.73-2.85V23.55c0-.22-.06-.33-.24-.33h-2c-.19,0-.28.11-.28.33V25.3a.24.24,0,0,0,.28.28h2C20.23,25.58,20.32,25.49,20.29,25.3Zm0,3.51V26.52c0-.24-.09-.35-.27-.32h-2c-.19,0-.28.08-.28.32v2.29a.24.24,0,0,0,.28.28h2C20.2,29.09,20.29,29,20.29,28.81Z"/><path class="cls-3" d="M22,28.15V27.09c0-.73.35-1.12,1.18-1.18v0c-.83-.08-1.22-.49-1.18-1.22V24q-.06-1.3,1.05-1.23h2.83c.73,0,1.08.38,1.06,1.23v.61c0,.73-.35,1.14-1.18,1.22v0c.83.06,1.22.45,1.18,1.18v1.06c0,.93-.36,1.39-1.15,1.39H23.16C22.39,29.54,22,29.08,22,28.15Zm3.73-2.85V23.55c0-.22-.06-.33-.25-.33h-2c-.19,0-.28.11-.28.33V25.3a.24.24,0,0,0,.28.28h2C25.71,25.58,25.79,25.49,25.77,25.3Zm0,3.51V26.52c0-.24-.1-.35-.28-.32h-2c-.19,0-.28.08-.28.32v2.29a.24.24,0,0,0,.28.28h2A.25.25,0,0,0,25.77,28.81Z"/><path class="cls-3" d="M32.36,28.15V27.09c0-.73.35-1.12,1.18-1.18v0c-.83-.08-1.22-.49-1.18-1.22V24c0-.87.31-1.28,1.06-1.23h2.83c.72,0,1.08.38,1,1.23v.61c.05.73-.35,1.14-1.18,1.22v0c.83.06,1.23.45,1.18,1.18v1.06c0,.93-.36,1.39-1.15,1.39H33.48C32.71,29.54,32.34,29.08,32.36,28.15Zm3.73-2.85V23.55c0-.22-.06-.33-.25-.33h-2c-.18,0-.28.11-.28.33V25.3a.25.25,0,0,0,.28.28h2C36,25.58,36.11,25.49,36.09,25.3Zm0,3.51V26.52c0-.24-.09-.35-.28-.32h-2c-.18,0-.28.08-.28.32v2.29a.25.25,0,0,0,.28.28h2A.24.24,0,0,0,36.09,28.81Z"/><path class="cls-3" d="M37.83,28.15V27.09c0-.73.36-1.12,1.19-1.18v0c-.83-.08-1.23-.49-1.19-1.22V24c0-.87.31-1.28,1.06-1.23h2.83c.73,0,1.08.38,1.06,1.23v.61c0,.73-.35,1.14-1.18,1.22v0c.83.06,1.22.45,1.18,1.18v1.06c0,.93-.36,1.39-1.15,1.39H39C38.19,29.54,37.81,29.08,37.83,28.15Zm3.73-2.85V23.55c0-.22-.06-.33-.24-.33h-2c-.19,0-.28.11-.28.33V25.3a.24.24,0,0,0,.28.28h2C41.5,25.58,41.59,25.49,41.56,25.3Zm0,3.51V26.52c0-.24-.09-.35-.27-.32h-2c-.19,0-.28.08-.28.32v2.29a.24.24,0,0,0,.28.28h2C41.47,29.09,41.56,29,41.56,28.81Z"/><path class="cls-3" d="M43.31,28.15V27.09c-.05-.73.35-1.12,1.18-1.18v0c-.83-.08-1.23-.49-1.18-1.22V24c-.05-.87.31-1.28,1-1.23h2.83c.73,0,1.08.38,1.06,1.23v.61c0,.73-.35,1.14-1.18,1.22v0c.83.06,1.22.45,1.18,1.18v1.06c0,.93-.36,1.39-1.15,1.39H44.43C43.66,29.54,43.29,29.08,43.31,28.15ZM47,25.3V23.55c0-.22-.06-.33-.25-.33h-2c-.19,0-.28.11-.28.33V25.3a.24.24,0,0,0,.28.28h2C47,25.58,47.06,25.49,47,25.3Zm0,3.51V26.52c0-.24-.1-.35-.28-.32h-2c-.19,0-.28.08-.28.32v2.29a.24.24,0,0,0,.28.28h2A.25.25,0,0,0,47,28.81Z"/><path class="cls-3" d="M48.78,28.15V27.09c0-.73.35-1.12,1.18-1.18v0c-.83-.08-1.22-.49-1.18-1.22V24c0-.87.31-1.28,1.06-1.23h2.83c.72,0,1.07.38,1,1.23v.61c.05.73-.35,1.14-1.18,1.22v0c.83.06,1.23.45,1.18,1.18v1.06c0,.93-.36,1.39-1.15,1.39H49.9C49.13,29.54,48.76,29.08,48.78,28.15Zm3.73-2.85V23.55c0-.22-.06-.33-.25-.33h-2c-.18,0-.28.11-.28.33V25.3a.25.25,0,0,0,.28.28h2C52.45,25.58,52.53,25.49,52.51,25.3Zm0,3.51V26.52c0-.24-.09-.35-.28-.32h-2c-.18,0-.28.08-.28.32v2.29a.25.25,0,0,0,.28.28h2A.24.24,0,0,0,52.51,28.81Z"/><path class="cls-3" d="M56.68,28.15V27.09c0-.73.35-1.12,1.18-1.18v0c-.83-.08-1.22-.49-1.18-1.22V24q-.06-1.3,1-1.23h2.83c.73,0,1.08.38,1.06,1.23v.61c0,.73-.35,1.14-1.18,1.22v0c.83.06,1.22.45,1.18,1.18v1.06c0,.93-.36,1.39-1.15,1.39H57.8C57,29.54,56.66,29.08,56.68,28.15Zm3.73-2.85V23.55c0-.22-.06-.33-.25-.33h-2c-.19,0-.28.11-.28.33V25.3a.24.24,0,0,0,.28.28h2C60.35,25.58,60.43,25.49,60.41,25.3Zm0,3.51V26.52c0-.24-.09-.35-.28-.32h-2c-.19,0-.28.08-.28.32v2.29a.24.24,0,0,0,.28.28h2A.24.24,0,0,0,60.41,28.81Z"/><path class="cls-3" d="M62.15,28.15V27.09c0-.73.35-1.12,1.18-1.18v0c-.83-.08-1.22-.49-1.18-1.22V24c0-.87.31-1.28,1.06-1.23H66c.72,0,1.08.38,1,1.23v.61c0,.73-.35,1.14-1.18,1.22v0c.83.06,1.23.45,1.18,1.18v1.06c0,.93-.36,1.39-1.15,1.39H63.27C62.5,29.54,62.13,29.08,62.15,28.15Zm3.73-2.85V23.55c0-.22-.06-.33-.25-.33h-2c-.18,0-.28.11-.28.33V25.3a.25.25,0,0,0,.28.28h2C65.82,25.58,65.9,25.49,65.88,25.3Zm0,3.51V26.52c0-.24-.09-.35-.28-.32h-2c-.18,0-.28.08-.28.32v2.29a.25.25,0,0,0,.28.28h2A.24.24,0,0,0,65.88,28.81Z"/><path class="cls-3" d="M67.62,28.15V27.09c0-.73.36-1.12,1.19-1.18v0c-.83-.08-1.23-.49-1.19-1.22V24c0-.87.31-1.28,1.06-1.23h2.83c.73,0,1.08.38,1.06,1.23v.61c0,.73-.35,1.14-1.18,1.22v0c.83.06,1.22.45,1.18,1.18v1.06c0,.93-.36,1.39-1.15,1.39H68.74C68,29.54,67.6,29.08,67.62,28.15Zm3.73-2.85V23.55c0-.22-.06-.33-.24-.33h-2c-.19,0-.28.11-.28.33V25.3a.24.24,0,0,0,.28.28h2C71.29,25.58,71.38,25.49,71.35,25.3Zm0,3.51V26.52c0-.24-.09-.35-.27-.32h-2c-.19,0-.28.08-.28.32v2.29a.24.24,0,0,0,.28.28h2C71.26,29.09,71.35,29,71.35,28.81Z"/><path class="cls-3" d="M73.1,28.15V27.09c0-.73.35-1.12,1.18-1.18v0c-.83-.08-1.23-.49-1.18-1.22V24c0-.87.31-1.28,1.05-1.23H77c.73,0,1.08.38,1.06,1.23v.61c0,.73-.35,1.14-1.18,1.22v0c.83.06,1.22.45,1.18,1.18v1.06c0,.93-.36,1.39-1.15,1.39H74.22C73.45,29.54,73.08,29.08,73.1,28.15Zm3.73-2.85V23.55c0-.22-.06-.33-.25-.33h-2c-.19,0-.28.11-.28.33V25.3a.24.24,0,0,0,.28.28h2C76.77,25.58,76.85,25.49,76.83,25.3Zm0,3.51V26.52c0-.24-.1-.35-.28-.32h-2c-.19,0-.28.08-.28.32v2.29a.24.24,0,0,0,.28.28h2A.25.25,0,0,0,76.83,28.81Z"/><rect class="cls-4" x="9" y="17.88" width="86" height="58.12" rx="2.71" ry="2.71"/><rect class="cls-1" x="9" y="55.24" width="86" height="11.27"/><circle class="cls-5" cx="19.08" cy="30.92" r="4.74"/><circle class="cls-3" cx="25.01" cy="30.92" r="4.74"/><text class="cls-6" transform="translate(14.34 47.54) scale(0.76 1)"><tspan xml:space="preserve">8888  8888 8888</tspan></text></svg>