<svg id="图层_1" data-name="图层 1" xmlns="http://www.w3.org/2000/svg" xmlns:xlink="http://www.w3.org/1999/xlink" viewBox="0 0 101 78"><defs><style>.cls-1{fill:#22ad91;}.cls-2{fill:url(#未命名的渐变_6);}.cls-3{fill:#fff;}</style><linearGradient id="未命名的渐变_6" x1="8.38" y1="44.64" x2="95.34" y2="44.64" gradientUnits="userSpaceOnUse"><stop offset="0" stop-color="#27cbad"/><stop offset="1" stop-color="#66e6cf"/></linearGradient></defs><title>地产</title><path class="cls-1" d="M.45,63.38H20.28s-4,14.55-11.9,14.55S-.88,67.35.45,63.38Z"/><rect class="cls-1" x="10.38" y="-0.12" width="90.62" height="21.83" rx="1.35" ry="1.35"/><path class="cls-2" d="M95.34,11.32H16.05v39a3.07,3.07,0,0,0,.05.53c.28,4.46,1.19,26.51-7.72,27.11H82.43s12.81,2.31,12.9-27.59c0,0,0,0,0-.05Z"/><path class="cls-3" d="M46,42,57,32,68,42H61s2,14-15,14c0,0,8-2,7-14Z"/></svg>